<svg width="48" height="48" viewBox="0 0 48 48" fill="none" xmlns="http://www.w3.org/2000/svg">
<path d="M30.5 40C30.5 41.3349 29.3789 42.9472 26.6429 44.3152C23.9966 45.6383 20.2359 46.5 16 46.5C11.7641 46.5 8.00336 45.6383 5.35711 44.3152C2.62114 42.9472 1.5 41.3349 1.5 40C1.5 38.6651 2.62114 37.0528 5.35711 35.6848C8.00336 34.3617 11.7641 33.5 16 33.5C20.2359 33.5 23.9966 34.3617 26.6429 35.6848C29.3789 37.0528 30.5 38.6651 30.5 40Z" stroke="#152C5B" stroke-width="3"/>
<path d="M28.5 12.3C28.5 15.4313 27.0036 22.406 24.507 28.6397C23.2652 31.7405 21.8182 34.5476 20.2641 36.5517C18.6625 38.617 17.2094 39.5 16 39.5C14.7906 39.5 13.3375 38.617 11.7359 36.5517C10.1818 34.5476 8.73483 31.7405 7.49298 28.6397C4.99639 22.406 3.5 15.4313 3.5 12.3C3.5 6.51188 8.9081 1.5 16 1.5C23.0919 1.5 28.5 6.51188 28.5 12.3Z" fill="white" stroke="#152C5B" stroke-width="3"/>
<circle cx="16" cy="13" r="4.5" stroke="#284ADE" stroke-width="3"/>
</svg>
