<svg width="48" height="48" viewBox="0 0 48 48" fill="none" xmlns="http://www.w3.org/2000/svg">
<mask id="path-1-inside-1" fill="white">
<path fill-rule="evenodd" clip-rule="evenodd" d="M19.3541 7C18.5363 7 17.8008 7.4979 17.4971 8.25722L15.6 13H8C3.58172 13 0 16.5817 0 21V32C0 36.4183 3.58172 40 8 40H40C44.4183 40 48 36.4183 48 32V21C48 16.5817 44.4183 13 40 13H32.4L30.5029 8.25722C30.1992 7.4979 29.4637 7 28.6459 7H19.3541Z"/>
</mask>
<path d="M17.4971 8.25722L20.2825 9.37139V9.37139L17.4971 8.25722ZM15.6 13V16H17.6311L18.3854 14.1142L15.6 13ZM32.4 13L29.6146 14.1142L30.3689 16H32.4V13ZM30.5029 8.25722L27.7175 9.37139V9.37139L30.5029 8.25722ZM20.2825 9.37139C20.1307 9.75105 19.763 10 19.3541 10V4C17.3095 4 15.471 5.24475 14.7117 7.14305L20.2825 9.37139ZM18.3854 14.1142L20.2825 9.37139L14.7117 7.14305L12.8146 11.8858L18.3854 14.1142ZM8 16H15.6V10H8V16ZM3 21C3 18.2386 5.23858 16 8 16V10C1.92487 10 -3 14.9249 -3 21H3ZM3 32V21H-3V32H3ZM8 37C5.23858 37 3 34.7614 3 32H-3C-3 38.0751 1.92487 43 8 43V37ZM40 37H8V43H40V37ZM45 32C45 34.7614 42.7614 37 40 37V43C46.0751 43 51 38.0751 51 32H45ZM45 21V32H51V21H45ZM40 16C42.7614 16 45 18.2386 45 21H51C51 14.9249 46.0751 10 40 10V16ZM32.4 16H40V10H32.4V16ZM27.7175 9.37139L29.6146 14.1142L35.1854 11.8858L33.2883 7.14305L27.7175 9.37139ZM28.6459 10C28.237 10 27.8693 9.75105 27.7175 9.37139L33.2883 7.14305C32.529 5.24475 30.6905 4 28.6459 4V10ZM19.3541 10H28.6459V4H19.3541V10Z" fill="#152C5B" mask="url(#path-1-inside-1)"/>
<circle cx="24" cy="26" r="6.5" stroke="#284ADE" stroke-width="3"/>
<path d="M40 20H34" stroke="#284ADE" stroke-width="3" stroke-linecap="round" stroke-linejoin="round"/>
</svg>
